<?xml version="1.0" standalone="no"?>
<!DOCTYPE svg PUBLIC "-//W3C//DTD SVG 20010904//EN"
 "http://www.w3.org/TR/2001/REC-SVG-20010904/DTD/svg10.dtd">
<svg version="1.0" xmlns="http://www.w3.org/2000/svg"
 width="614.000000pt" height="460.000000pt" viewBox="0 0 614.000000 460.000000"
 preserveAspectRatio="xMidYMid meet">

<g transform="translate(0.000000,460.000000) scale(0.100000,-0.100000)"
fill="#000000" stroke="none">
<path d="M3380 3241 c-191 -60 -299 -192 -324 -395 l-8 -59 44 7 c23 4 59 11
80 17 89 23 206 140 248 247 23 60 39 186 24 195 -5 3 -34 -3 -64 -12z"/>
<path d="M3372 2819 c-24 -4 -81 -20 -127 -34 -134 -41 -155 -41 -300 -5 -72
17 -159 34 -195 37 -77 6 -185 -16 -245 -51 -51 -30 -143 -127 -177 -186 -65
-112 -96 -289 -78 -447 33 -297 231 -655 413 -750 74 -39 154 -37 267 7 118
46 204 47 354 2 130 -38 197 -41 263 -10 109 51 257 245 332 436 l19 48 -54
28 c-69 36 -135 109 -176 195 -30 61 -33 73 -33 171 0 98 2 110 33 174 23 50
52 89 104 139 l72 71 -60 54 c-116 107 -264 151 -412 121z"/>
</g>
</svg>
